<svg xmlns="http://www.w3.org/2000/svg" xmlns:xlink="http://www.w3.org/1999/xlink" width="178" height="90" viewBox="0 0 178 90"><defs><clipPath id="b"><rect width="178" height="90"/></clipPath></defs><g id="a" clip-path="url(#b)"><path d="M8.091-64.17H7.44c-1.953.279-4,.465-5.952.837a17.612,17.612,0,0,1-6.975,0c-.186-.093-.279,0-.465,0a.655.655,0,0,0-.372.465c.093.279.093.558.186.837A13.423,13.423,0,0,0-4-59.055a5.9,5.9,0,0,0,4.371,1.86H4c.93,0,1.209.279,1.209,1.116a3.487,3.487,0,0,1-.093,1.023,12.4,12.4,0,0,0-.279,2.6,6.588,6.588,0,0,1-.093,1.3,35.134,35.134,0,0,0-.651,8.277v8C4-32.178,4-29.481,3.813-26.784c-.186,2.79-.186,5.58-.279,8.37h.093v5.58a28.656,28.656,0,0,0,.651,6.975A2.353,2.353,0,0,0,5.58-4,11.941,11.941,0,0,1,8-2.139L9.672-.465A12.155,12.155,0,0,0,10.788.558,1.11,1.11,0,0,0,12,.744l.558-.279a2.172,2.172,0,0,0,1.116-.93,2.064,2.064,0,0,1,.465-1.023,4.323,4.323,0,0,0,.837-2.139,50.2,50.2,0,0,0,1.4-9.114c0-1.3.093-2.7.186-4,.093-3.162.279-6.324.186-9.486a6.14,6.14,0,0,1,.093-1.3,5.72,5.72,0,0,0,0-2.511c-.186-.93.279-1.86.186-2.79a4.8,4.8,0,0,1-.186-1.023,10.617,10.617,0,0,1,.093-3.441,4.8,4.8,0,0,0,.186-1.023,7.927,7.927,0,0,1,.279-2.139,7.056,7.056,0,0,0-.093-2.79,11.567,11.567,0,0,0-.372-1.488l-1.674-6.138a8.608,8.608,0,0,1-.372-2.139,29.079,29.079,0,0,0,0-4.929c0-.093.186-.186.279-.186a11.95,11.95,0,0,1,3.162.651c2.6.744,2.6.651,5.208.279a2.264,2.264,0,0,0,1.86-1.209,1.634,1.634,0,0,0,.186-1.3,12,12,0,0,0-.837-1.488,2.249,2.249,0,0,0-2.232-1.395c-.372.093-.837,0-1.3.093a26.428,26.428,0,0,1-6.6-.558c-.558-.186-1.209-.279-1.86-.465A19.343,19.343,0,0,0,8.091-64.17ZM20.739-37.107a.794.794,0,0,0-.651,0,6.245,6.245,0,0,0-2.139.93,3.055,3.055,0,0,0-1.209,2.6A4.144,4.144,0,0,0,19.065-30.5a2.082,2.082,0,0,1,1.4.744,6.072,6.072,0,0,0,1.488,1.209c1.023.558.93.837.558,1.674-.093.186-.186.279-.186.465a36.114,36.114,0,0,0-2.6,7.533A45.366,45.366,0,0,0,18.6-13.764l-.465,2.7a10.229,10.229,0,0,0-.186,2.511,10.871,10.871,0,0,0,.372,3.348,6.584,6.584,0,0,0,1.488,2.883A4.968,4.968,0,0,0,23.157-.093a3.073,3.073,0,0,0,1.3,0c.186,0,.372-.093.558-.093a3.986,3.986,0,0,0,2.232-.93c.558-.279,1.023-.651,1.581-.93,1.3-.744,7.068-5.394,8.277-6.417A13.308,13.308,0,0,1,38.5-9.486a2.507,2.507,0,0,0,.744-.651l.279-.558a1.124,1.124,0,0,0-.279-.93.9.9,0,0,0-.837-.093,5.483,5.483,0,0,0-.744.372A27.479,27.479,0,0,0,34.782-9.3l-.93.651c-1.3.93-7.533,5.3-9.114,6.045a2.626,2.626,0,0,1-1.674.186,1.322,1.322,0,0,1-.558-.186,2.119,2.119,0,0,1-.837-2.046,1.724,1.724,0,0,1,.186-.651,7.168,7.168,0,0,0,1.581-2.511,3.263,3.263,0,0,1,.465-.744,8.562,8.562,0,0,0,1.209-2.232c.651-1.86,1.581-3.627,2.139-5.487a10.165,10.165,0,0,1,.744-1.4,1.946,1.946,0,0,1,.372-.558,3.149,3.149,0,0,0,.558-1.4,10.181,10.181,0,0,1,.837-2.139,6.12,6.12,0,0,0,.837-2.883A1.18,1.18,0,0,0,30.5-25.2a5.494,5.494,0,0,0-3.441-3.72l-1.3-.558a3.9,3.9,0,0,0-1.488-.372,1.771,1.771,0,0,1-1.3-.372c-.651-.372-1.4-.744-2.139-1.209a3.547,3.547,0,0,1-1.488-1.395,2.3,2.3,0,0,1-.372-.837.9.9,0,0,1,.093-.837,1.813,1.813,0,0,1,.93-.93.664.664,0,0,1,.93.279,1.529,1.529,0,0,1,.186.93c0,.186-.093.372-.093.651a1.624,1.624,0,0,0,.372,1.116.894.894,0,0,0,.837.558,1.908,1.908,0,0,0,1.581-.465,1.324,1.324,0,0,0,.465-1.488A4.272,4.272,0,0,0,23.25-35.9,2.527,2.527,0,0,0,21.3-37.014C21.111-37.014,20.925-37.107,20.739-37.107Zm30.039,4.65a2.581,2.581,0,0,0-1.674,0,1.083,1.083,0,0,0-.93,1.023v.651a22.491,22.491,0,0,1,.279,5.58v.279c-.093.093-.093.279-.186.279a.559.559,0,0,1-.372-.093,21.121,21.121,0,0,0-5.859-4,3.03,3.03,0,0,0-1.209-.372c-2.511-.093-2.883-.186-4.929,1.674a8.385,8.385,0,0,0-.837.93,16.472,16.472,0,0,0-2.976,6.324c-.186.837-.372,1.581-.465,2.325a27.739,27.739,0,0,0,.465,6.231,12.863,12.863,0,0,0,2.79,5.766,9.213,9.213,0,0,0,5.3,3.162,6.869,6.869,0,0,0,3.348-.279,19.324,19.324,0,0,0,5.487-2.883L50.034-6.6a.556.556,0,0,1,.744.186,8.728,8.728,0,0,1,.558,1.395,21.292,21.292,0,0,0,1.3,2.511,18.088,18.088,0,0,0,3.813,4.557,8.587,8.587,0,0,0,2.79,1.674c.558.093,1.116.279,1.674.372a5.3,5.3,0,0,0,4.557-.837c.837-.558,1.581-1.209,2.325-1.767a15.451,15.451,0,0,0,2.418-2.511,17.3,17.3,0,0,1,1.953-2.6c.651-.744.465-1.4.93-2.325,0-2.139-.465-2.325-2.139-.372-1.3,1.488-2.418,3.162-3.906,4.743C66.03-.465,65.1.651,62.868.651c-1.488,0-1.674.186-1.86-1.116a5.057,5.057,0,0,1,0-1.674,6.511,6.511,0,0,0,0-2.325,21.627,21.627,0,0,1-.372-3.441,6.14,6.14,0,0,0-.093-1.3,18.712,18.712,0,0,1-.093-5.58,4.026,4.026,0,0,0,.093-1.488,27.069,27.069,0,0,1-.279-4.743v-2.511a6.756,6.756,0,0,0-.651-3.348,13.424,13.424,0,0,0-2.139-2.976,6.34,6.34,0,0,0-3.162-1.767A21.755,21.755,0,0,1,50.778-32.457ZM42.5-26.133c.279.186.651.372.93.558l2.232,1.3A10.373,10.373,0,0,0,47.9-23.064c.372,0,.465.279.465.651.093.93.093,1.86.093,2.79a26.3,26.3,0,0,0,.279,3.813c.372,2.6.372,2.7-1.488,4.836a22.389,22.389,0,0,1-3.813,3.441,9.232,9.232,0,0,1-2.79,1.116,4.171,4.171,0,0,1-1.023.093,1.523,1.523,0,0,1-1.4-.93,4.672,4.672,0,0,1-.465-1.209,14.183,14.183,0,0,1-.744-4.557c.093-.465.093-1.023.186-1.581a13.875,13.875,0,0,0,.186-1.953,12.558,12.558,0,0,1,.558-3.162c.279-1.023.558-2.046.93-3.069a14.417,14.417,0,0,1,1.3-2.7A1.905,1.905,0,0,1,42.5-26.133Zm41.85-10.974a7.6,7.6,0,0,0-2.511.093,4.606,4.606,0,0,0-2.883,5.859,11.1,11.1,0,0,0,.744,1.488,4.058,4.058,0,0,0,1.488,1.581c.837.465,1.116.744.651,1.767,0,.093,0,.093-.093.186a59.234,59.234,0,0,0-3.069,12.741,33.722,33.722,0,0,1-1.209,5.3A.091.091,0,0,1,77.376-8a.937.937,0,0,1-.279-.093,45.035,45.035,0,0,0-2.6-6.138l-2.511-5.022a9.647,9.647,0,0,0-.372-.93c-.558-1.581-1.116-3.162-1.581-4.743-.372-1.023-.651-2.046-1.023-3.069a8.7,8.7,0,0,0-3.255-4.278,7.917,7.917,0,0,0-4.278-1.488c-1.116-.093-1.488.093-1.3,1.3v.465a33.574,33.574,0,0,0,.837,5.859,103.633,103.633,0,0,0,3.72,10.23c1.209,2.79,2.511,5.487,3.813,8.184A24.419,24.419,0,0,0,70.4-4.65a13.226,13.226,0,0,0,2.79,2.79,2.826,2.826,0,0,0,.651.465A6.69,6.69,0,0,1,75.795-.279a.855.855,0,0,0,.93.093,2.366,2.366,0,0,1,.651-.186c.651,0,.93-.372,1.395-.744a.706.706,0,0,0,.279-.837A7.387,7.387,0,0,1,79.143-4a15.737,15.737,0,0,1,.651-3.534,8.847,8.847,0,0,0,.372-1.674,35.08,35.08,0,0,1,1.3-5.394,10.127,10.127,0,0,0,.744-2.883,19.345,19.345,0,0,1,1.023-4.464,8.8,8.8,0,0,0,.744-3.441c0-.186.093-.372.093-.558a2.27,2.27,0,0,1,1.767-2.046c.093,0,.093,0,.186-.093A23.812,23.812,0,0,0,90.4-30.225c.186-.093.279-.279.372-.372.186-.186,0-.651-.186-.744H90.21a2.156,2.156,0,0,0-1.488.279l-1.86.837a4.025,4.025,0,0,1-1.116.465c-.093.093-.279,0-.372-.093-.093,0-.186-.186-.186-.279l.093-.372a13.273,13.273,0,0,1,.744-2.046,3.624,3.624,0,0,0-.279-3.627A2.347,2.347,0,0,0,84.351-37.107Zm-1.86,1.395a.7.7,0,0,1,.93.465,3.126,3.126,0,0,1,.372,1.767c-.093.186-.093.744-.279,1.209-.186.744-.465,1.4-.651,2.046a.688.688,0,0,1-1.116.372,3.7,3.7,0,0,1-1.767-2.325,2.678,2.678,0,0,1,.651-2.325A4.955,4.955,0,0,1,82.491-35.712Zm30.6,26.226a.615.615,0,0,0-.558-.093,9.434,9.434,0,0,0-1.209.837c-1.488,1.116-1.581,1.581-3.255,2.79a3.717,3.717,0,0,1-1.4.837,6.148,6.148,0,0,0-2.325,1.209,20.023,20.023,0,0,1-4.464,2.79,7.536,7.536,0,0,1-3.813.651,2.281,2.281,0,0,1-1.674-1.023A6.936,6.936,0,0,1,93.744-2.6a20.009,20.009,0,0,1-1.209-5.3v-.186c0-.279.279-.651.558-.651a1.724,1.724,0,0,1,.651-.186,9.036,9.036,0,0,0,4.278-2.232,28.943,28.943,0,0,1,2.6-2.139,5.97,5.97,0,0,0,.93-1.209,13.947,13.947,0,0,1,1.767-2.325,6.934,6.934,0,0,0,1.3-1.581,22.249,22.249,0,0,0,2.046-5.394,4.528,4.528,0,0,0,.093-1.116c0-.651-.093-1.4-.093-2.046a5.085,5.085,0,0,0-.837-2.6,7.95,7.95,0,0,0-3.255-3.069,20.876,20.876,0,0,0-2.511-1.209,7.919,7.919,0,0,0-3.348-.465,15.12,15.12,0,0,0-4.557,1.3,8.567,8.567,0,0,0-3.534,2.7L87.885-29.2a23.128,23.128,0,0,1-1.4,2.6,16.788,16.788,0,0,0-1.86,4.65,32.27,32.27,0,0,0-.93,6.7,34.942,34.942,0,0,0,1.023,7.533,9.446,9.446,0,0,0,2.418,4.557C88.164-2.046,89.187-1.023,90.3,0A9.446,9.446,0,0,0,94.86,2.418a12.127,12.127,0,0,0,4.092.186.765.765,0,0,0,.558-.372,1.7,1.7,0,0,1,1.209-.744l1.488-.279c.465-.186.93-.279,1.209-.744a3.013,3.013,0,0,1,.837-.744,14.369,14.369,0,0,0,2.232-1.767,4.3,4.3,0,0,1,.651-.651,50.794,50.794,0,0,0,4.092-3.534,11.248,11.248,0,0,0,1.488-1.488,1.561,1.561,0,0,0,.558-1.3C113.274-9.207,113.274-9.393,113.088-9.486ZM92.256-11.9c.093-1.023.279-1.953.465-2.976A22.1,22.1,0,0,1,95.6-22.32a1.121,1.121,0,0,1,.465-.465.979.979,0,0,0,.744-.93,1.493,1.493,0,0,1,.465-1.023,4.572,4.572,0,0,1,3.813-1.3h.279a2.882,2.882,0,0,1,1.209.558c0,.093.093.093.093.186,1.488,1.86,1.488,2.325.651,4.371a15.73,15.73,0,0,1-2.883,4.557c-1.023,1.023-2.139,2.046-3.255,3.069a9.551,9.551,0,0,1-3.72,1.953,1.813,1.813,0,0,1-.744-.093A.6.6,0,0,1,92.256-11.9Zm28.272-53.01a18.172,18.172,0,0,0-4.371,1.3,20.176,20.176,0,0,1-3.255,1.395l-.279.372a1.011,1.011,0,0,0-.093.465,14.5,14.5,0,0,1-.651,4.092c-.558,2.139-1.209,4.185-1.767,6.231l-1.674,6.324a56.747,56.747,0,0,0-1.674,8.649c-.093,1.3-.186,2.6-.372,3.906a18.045,18.045,0,0,0-.186,3.162v3.348a49.5,49.5,0,0,0,.372,6.417,2.575,2.575,0,0,0,.093.837c.186,1.581.651,3.162.93,4.65.465,2.046.93,4,1.488,5.952a17.327,17.327,0,0,0,3.069,6.138L113.553,0A20.216,20.216,0,0,1,116.9-.186a5.111,5.111,0,0,1,.837-.651,1.725,1.725,0,0,0,.651-1.116,2.393,2.393,0,0,0-.093-1.395,16.292,16.292,0,0,1-.372-3.72c-.093-.837-.186-1.767-.372-2.7a6.439,6.439,0,0,1-.372-3.255,4.668,4.668,0,0,0-.186-1.116,7.414,7.414,0,0,0-.279-1.395,17.919,17.919,0,0,1-.093-2.232A9.173,9.173,0,0,1,116.343-20v-1.023a46.914,46.914,0,0,1,0-5.115v-.744a6.522,6.522,0,0,1,.186-2.7v-.558a16.116,16.116,0,0,1,.279-2.976,4.528,4.528,0,0,0,.093-1.116,21.156,21.156,0,0,1,.93-5.394,1.237,1.237,0,0,1,.279-.744,29.34,29.34,0,0,1,2.046-2.7,40.666,40.666,0,0,0,4.185-5.487,19.152,19.152,0,0,0,3.255-7.44,10.773,10.773,0,0,0,.279-2.976,10.679,10.679,0,0,0-.093-1.767,2.99,2.99,0,0,0-.93-1.953,6.282,6.282,0,0,0-2.511-1.674,2.365,2.365,0,0,0-.651-.186A6.086,6.086,0,0,0,120.528-64.914Zm4.278,4.092c.093-.186.465,0,.465.186a.091.091,0,0,1,.093.093c0,.372.093.651.093,1.023a24.193,24.193,0,0,1-.465,3.627,12.429,12.429,0,0,1-1.488,3.627,38.4,38.4,0,0,1-2.976,4.557c-.093,0-.093.093-.186.093-.093-.093-.186-.186-.093-.279,0-.186.093-.279.186-.465a18.533,18.533,0,0,0,1.395-4.557l.279-.744a3.732,3.732,0,0,0,.279-1.395,8.177,8.177,0,0,1,.93-3.348c.279-.651.651-1.209.93-1.86ZM149.172-9.486a.615.615,0,0,0-.558-.093,9.435,9.435,0,0,0-1.209.837c-1.488,1.116-1.581,1.581-3.255,2.79a3.717,3.717,0,0,1-1.395.837,6.148,6.148,0,0,0-2.325,1.209,20.023,20.023,0,0,1-4.464,2.79,7.536,7.536,0,0,1-3.813.651,2.281,2.281,0,0,1-1.674-1.023,6.936,6.936,0,0,1-.651-1.116,20.009,20.009,0,0,1-1.209-5.3v-.186c0-.279.279-.651.558-.651a1.724,1.724,0,0,1,.651-.186,9.036,9.036,0,0,0,4.278-2.232,28.943,28.943,0,0,1,2.6-2.139,5.97,5.97,0,0,0,.93-1.209,13.947,13.947,0,0,1,1.767-2.325,6.934,6.934,0,0,0,1.3-1.581,22.249,22.249,0,0,0,2.046-5.394,4.528,4.528,0,0,0,.093-1.116c0-.651-.093-1.4-.093-2.046a5.085,5.085,0,0,0-.837-2.6,7.95,7.95,0,0,0-3.255-3.069,20.876,20.876,0,0,0-2.511-1.209,7.919,7.919,0,0,0-3.348-.465,15.121,15.121,0,0,0-4.557,1.3,8.567,8.567,0,0,0-3.534,2.7l-.744,1.116a23.128,23.128,0,0,1-1.4,2.6,16.788,16.788,0,0,0-1.86,4.65,32.27,32.27,0,0,0-.93,6.7,34.942,34.942,0,0,0,1.023,7.533,9.446,9.446,0,0,0,2.418,4.557c1.023,1.116,2.046,2.139,3.162,3.162a9.446,9.446,0,0,0,4.557,2.418,12.127,12.127,0,0,0,4.092.186.765.765,0,0,0,.558-.372,1.7,1.7,0,0,1,1.209-.744l1.488-.279c.465-.186.93-.279,1.209-.744a3.013,3.013,0,0,1,.837-.744,14.369,14.369,0,0,0,2.232-1.767,4.3,4.3,0,0,1,.651-.651,50.8,50.8,0,0,0,4.092-3.534A11.249,11.249,0,0,0,148.8-7.719a1.561,1.561,0,0,0,.558-1.3C149.358-9.207,149.358-9.393,149.172-9.486ZM128.34-11.9c.093-1.023.279-1.953.465-2.976a22.1,22.1,0,0,1,2.883-7.44,1.121,1.121,0,0,1,.465-.465.979.979,0,0,0,.744-.93,1.493,1.493,0,0,1,.465-1.023,4.572,4.572,0,0,1,3.813-1.3h.279a2.882,2.882,0,0,1,1.209.558c0,.093.093.093.093.186,1.488,1.86,1.488,2.325.651,4.371a15.73,15.73,0,0,1-2.883,4.557c-1.023,1.023-2.139,2.046-3.255,3.069a9.551,9.551,0,0,1-3.72,1.953,1.813,1.813,0,0,1-.744-.093A.6.6,0,0,1,128.34-11.9Zm17.949-25.2a.794.794,0,0,0-.651,0,6.245,6.245,0,0,0-2.139.93,3.055,3.055,0,0,0-1.209,2.6,4.144,4.144,0,0,0,2.325,3.069,2.082,2.082,0,0,1,1.4.744,6.072,6.072,0,0,0,1.488,1.209c1.023.558.93.837.558,1.674-.093.186-.186.279-.186.465a36.113,36.113,0,0,0-2.6,7.533,45.364,45.364,0,0,0-1.116,5.115l-.465,2.7a10.229,10.229,0,0,0-.186,2.511,10.871,10.871,0,0,0,.372,3.348,6.584,6.584,0,0,0,1.488,2.883,4.968,4.968,0,0,0,3.348,2.232,3.073,3.073,0,0,0,1.3,0c.186,0,.372-.093.558-.093a3.986,3.986,0,0,0,2.232-.93c.558-.279,1.023-.651,1.581-.93,1.3-.744,7.068-5.394,8.277-6.417a13.309,13.309,0,0,1,1.4-1.023,2.507,2.507,0,0,0,.744-.651l.279-.558a1.124,1.124,0,0,0-.279-.93.9.9,0,0,0-.837-.093,5.484,5.484,0,0,0-.744.372A27.48,27.48,0,0,0,160.332-9.3l-.93.651c-1.3.93-7.533,5.3-9.114,6.045a2.626,2.626,0,0,1-1.674.186,1.322,1.322,0,0,1-.558-.186,2.119,2.119,0,0,1-.837-2.046A1.724,1.724,0,0,1,147.4-5.3a7.168,7.168,0,0,0,1.581-2.511,3.262,3.262,0,0,1,.465-.744,8.562,8.562,0,0,0,1.209-2.232c.651-1.86,1.581-3.627,2.139-5.487a10.164,10.164,0,0,1,.744-1.4,1.946,1.946,0,0,1,.372-.558,3.15,3.15,0,0,0,.558-1.4,10.18,10.18,0,0,1,.837-2.139,6.12,6.12,0,0,0,.837-2.883,1.18,1.18,0,0,0-.093-.558,5.494,5.494,0,0,0-3.441-3.72l-1.3-.558a3.9,3.9,0,0,0-1.488-.372,1.771,1.771,0,0,1-1.3-.372c-.651-.372-1.395-.744-2.139-1.209a3.547,3.547,0,0,1-1.488-1.395,2.3,2.3,0,0,1-.372-.837.9.9,0,0,1,.093-.837,1.813,1.813,0,0,1,.93-.93.664.664,0,0,1,.93.279,1.53,1.53,0,0,1,.186.93c0,.186-.093.372-.093.651a1.624,1.624,0,0,0,.372,1.116.894.894,0,0,0,.837.558,1.908,1.908,0,0,0,1.581-.465,1.324,1.324,0,0,0,.465-1.488A4.272,4.272,0,0,0,148.8-35.9a2.527,2.527,0,0,0-1.953-1.116C146.661-37.014,146.475-37.107,146.289-37.107Z" transform="translate(10 66)" fill="#fff"/><path d="M10.292,6.357a.688.688,0,0,0-.066-.246,6.079,6.079,0,0,1-.459-1.181,5.814,5.814,0,0,0-.148-.624.424.424,0,0,0-.394-.23.46.46,0,0,0-.427.3c-.722-.033-1.428-.066-2.15-.066a.861.861,0,0,0-.87.853c0,2.067.066,4.119.082,6.186a26.363,26.363,0,0,0,.131,3.282c.066.263.263.312.492.345a5.464,5.464,0,0,0,.87.18c.246,0,.64-.066.64-.377,0-.722-1.067.049-1.181-.9-.066-.574-.115-1.149-.131-1.723-.066-1.969-.1-3.954-.1-5.94,0-.115-.016-.263-.016-.41,0-.361.066-.755.443-.755A17.131,17.131,0,0,1,9,5.258c.164.377.312,1,.476,1.3a.417.417,0,0,0,.377.23A.438.438,0,0,0,10.292,6.357ZM5.32,14c0-.312-.016-.64-.033-.952-.049-1.329-.049-2.658-.049-3.987v-2c0-.8-.131-1.592-.131-2.4a.44.44,0,0,0-.443-.476.385.385,0,0,0-.361.3H3.729c-.689,0-1.395-.082-2.084-.082A.37.37,0,0,1,1.3,4.158a.36.36,0,0,0-.279-.115c-.328,0-.394.246-.394.525a4.592,4.592,0,0,1-.049.82,10.867,10.867,0,0,0-.41,1.395.344.344,0,0,0,.345.328c.64,0,.558-1.92,1.428-1.92.755,0,1.559.049,2.314.1l.1.066a18.32,18.32,0,0,1,.1,2.3V9.146c0,1.592.082,3.167.082,4.759a.213.213,0,0,1-.213.18c-.279.1-1.067.459-1.067.8a.4.4,0,0,0,.394.394.465.465,0,0,0,.213-.066,8.917,8.917,0,0,1,1.2-.525C5.3,14.594,5.32,14.233,5.32,14Zm17.721.377c0-.23-.476-.3-.64-.361-2.051-.886-2.33-3.462-4.611-3.872l-.082-.049c.164-.377,2.133-1.526,2.133-2.494,0-.066-.591-1.51-.673-1.8A2.206,2.206,0,0,0,16.79,4.306c-.64,0-1.247.131-1.887.131h-.23c-.312,0-.459.049-.459.525,0,1.181.049,2.363.049,3.544,0,1.2-.033,2.4-.033,3.594v.607a7.162,7.162,0,0,0,.131,1.624c.115.427.755.689,1.149.689.263,0,.509-.1.509-.41,0-.656-.919-.115-.919-.968,0-.394-.066-.952-.066-1.346v-.312a1.514,1.514,0,0,1,.016-.312c.1-.328,1.083-.492,1.395-.492,1.329,0,1.559,3.84,4.594,3.84a1.872,1.872,0,0,0,.673-.115.428.428,0,0,1,.279-.115c.115,0,.213.049.328.049C22.549,14.84,23.042,14.66,23.042,14.381Zm-9.616-4.348a25.184,25.184,0,0,0-.345-4.709.485.485,0,0,1-.033-.164c0-.148.1-.3.1-.443a.364.364,0,0,0-.361-.361c-.131,0-.263.082-.394.082-.263,0-.525-.164-.788-.164a.438.438,0,0,0-.427.443.418.418,0,0,0,.394.427H11.6l.049-.016a.4.4,0,0,1,.263-.1.452.452,0,0,1,.443.443,37.541,37.541,0,0,1,.3,4.693v.624a26,26,0,0,1-.115,2.986c-.082.443-1.149.148-1.149.82a.435.435,0,0,0,.41.443,7.458,7.458,0,0,1,.82-.115c.377,0,.558-.345.591-.673C13.344,12.9,13.426,11.394,13.426,10.032Zm5.579-2.4c0,.049-.033.1-.033.148a8.552,8.552,0,0,1-3.413,2.839.479.479,0,0,1-.148.033c-.3,0-.377-.23-.377-.492,0-1.149-.016-2.281-.082-3.429-.016-.427-.066-.853-.066-1.28,0-.328.558-.361.952-.361h.3a1.747,1.747,0,0,1,.574.427,3.656,3.656,0,0,1,.673,2.428c0,.082-.033.263-.033.427,0,.18.049.361.213.361.033,0,.049-.016.082-.016a1.209,1.209,0,0,0,.394-1.083,5.6,5.6,0,0,0-.312-1.871,4.418,4.418,0,0,1-.213-.525V5.225l.066-.049c.935,0,1.067,1.592,1.346,2.232A.647.647,0,0,1,19.005,7.637Zm2.067,6.6c0,.033-.066.115-.1.115a2.6,2.6,0,0,1-2.133-1.624c-.115-.213-1.017-1.559-1.017-1.641s.066-.082.131-.082c1.3,0,2,2.478,3.036,3.118C21.04,14.151,21.073,14.184,21.073,14.233Zm12.7.476c0-.558-1.05-.443-1.28-.919-.213-.443-2.593-8.5-2.593-8.631,0-.115.148-.164.148-.361a.385.385,0,0,0-.377-.394c-.18,0-.722.033-.722.3,0,.18,2.494,8.844,2.707,9.616,0,.033-.016.049-.016.082a.454.454,0,0,0,.328.41,4.023,4.023,0,0,0,.443.033c.328.049.624.164.952.246h.066A.365.365,0,0,0,33.773,14.709Zm-2.855.263c-.591-2.543-1.263-5.07-2.035-7.564A26.5,26.5,0,0,0,27.9,4.355a.337.337,0,0,0-.312-.213.362.362,0,0,0-.377.312c0,.115.033.213.033.328a.32.32,0,0,1-.016.115c-.148.591-.41,1.2-.607,1.772-.591,1.657-1.214,3.3-1.92,4.906-.328.755-.722,1.477-1.017,2.248-.066.18-.1.328-.3.427a9.156,9.156,0,0,0-.935.131.361.361,0,0,0-.131-.016.319.319,0,0,0-.328.328.344.344,0,0,0,.345.328.824.824,0,0,0,.2.033c.394,0,.755-.213,1.165-.213a1.667,1.667,0,0,1,.558.1A.292.292,0,0,0,24.42,15a.238.238,0,0,0,.246-.23,1.1,1.1,0,0,0-.213-.492,24.644,24.644,0,0,1,1.05-2.773,7.456,7.456,0,0,1,1.8-.23,5.715,5.715,0,0,1,1.772.246,13.843,13.843,0,0,1,.837,2.872c0,.049-.1.033-.131.049a.35.35,0,0,0-.263.345c0,.345.361.377.624.377A1.586,1.586,0,0,0,30.918,14.971Zm-2.084-4.266-.033.033a8.825,8.825,0,0,0-1.477-.131c-.443,0-.9.1-1.329.1a.112.112,0,0,1-.115-.115c.18-.459,1.542-4.184,1.657-4.266h.049A24.777,24.777,0,0,1,28.834,10.705ZM43.963,4.814c0-.427-.558-.459-.87-.459h-.2A.684.684,0,0,1,42.5,4.5a.773.773,0,0,1-.279-.066c-.213,0-.427-.016-.64-.016-.3,0-.689.049-.689.427a.393.393,0,0,0,.41.394c.1,0,.312-.033.476-.033.131,0,.246.016.279.1a50.283,50.283,0,0,1-2.346,6.416,2.775,2.775,0,0,1-.476-.673c-.312-.607-.574-1.231-.82-1.854-.377-.952-.87-1.887-1.313-2.806a5.8,5.8,0,0,1-.377-1.05c0-.279.82-.115.82-.64a.382.382,0,0,0-.361-.394c-.148,0-.279.066-.427.066-.131,0-.263-.033-.394-.033-.312,0-.64.082-.64.459a33.182,33.182,0,0,0,1.362,3.249,30.115,30.115,0,0,0,2.15,4.529.7.7,0,0,0,.541.3.6.6,0,0,0,.574-.459c.82-2.2,1.526-4.43,2.363-6.629a1.9,1.9,0,0,1,.427-.64,1.03,1.03,0,0,0,.312.049C43.717,5.192,43.963,5.126,43.963,4.814ZM39.615,14.824c0-.148-.164-.361-.23-.492C38.236,12.313,37.2,10.213,36.251,8.1A36.818,36.818,0,0,0,34.4,4.4a.436.436,0,0,0-.345-.164c-.246,0-.459.164-.722.164a1.165,1.165,0,0,1-.476-.082.485.485,0,0,0-.443.492c0,.2.164.459.377.459.328,0,.656-.164.968-.164.18,0,.213.049.3.2a16.933,16.933,0,0,1,.87,1.723c.837,1.756,1.674,3.511,2.543,5.251a25.351,25.351,0,0,0,1.51,2.757.353.353,0,0,0,.64-.213ZM53.5,12.182a.4.4,0,0,0-.394-.394.387.387,0,0,0-.263.115s-.525,1.247-.64,1.477c-.476.919-1.789,1.05-2.724,1.05-.361,0-1.51-.2-1.51-.689V10.853a3.034,3.034,0,0,1,.016-.377.281.281,0,0,1,.2-.263,4.768,4.768,0,0,0,1.2-.755l.1-.033.066.033c.263.525.066,1.854,1,1.854.459,0,.607-.377.607-.771,0-.738-.525-2.035-1.411-2.035-.624,0-1.411.919-1.674.919-.016,0-.082-.033-.1-.033-.066-.18-.066-3.019-.066-3.446a2.161,2.161,0,0,1,.131-.722l.033-.016a5.807,5.807,0,0,1,1.854-.213h.509a1.242,1.242,0,0,1,.246.016c.591.1.164,1.477.837,1.477.312,0,.443-.263.443-.541,0-.1-.377-1.559-.427-1.624a.468.468,0,0,0-.394-.2.462.462,0,0,0-.394.213,9.563,9.563,0,0,0-.968-.049,13.658,13.658,0,0,0-1.821.164.79.79,0,0,0-.755.64,1.592,1.592,0,0,0-.016.279c0,.213.115,9.238.131,9.271a.463.463,0,0,0,.41.164h.1c.115,0,.771.246.968.279a3.564,3.564,0,0,0,.722.049,7.107,7.107,0,0,0,2.264-.361.583.583,0,0,1,.164-.033.16.16,0,0,1,.164.131.429.429,0,0,0,.3.148.44.44,0,0,0,.443-.476C52.84,13.921,53.5,12.691,53.5,12.182ZM46.523,6.718a7.5,7.5,0,0,0-.23-1.92c-.082-.2-.509-.3-.673-.492a.331.331,0,0,0-.18-.049.428.428,0,0,0-.41.41c0,.361.41.394.64.558a9.87,9.87,0,0,1,.181,2.314c0,1.444-.131,2.872-.131,4.3,0,.689.066,1.395.066,2.084,0,.41-1.165.541-1.165,1.034a.4.4,0,0,0,.427.377,13.882,13.882,0,0,0,1.3-.673.659.659,0,0,0,.164-.459c0-.624-.066-1.247-.066-1.871C46.441,10.459,46.523,8.588,46.523,6.718Zm16.524,5.316a.553.553,0,0,0-.082-.279c-.164-.066-.181-.2-.361-.2-.41,0-.64,1.214-.985,1.657a3.384,3.384,0,0,1-2.445,1.017c-.345,0-1.067-.082-1.149-.476a18.843,18.843,0,0,1-.115-2.511v-.541c0-1.821.033-3.659.049-5.481.164-.23.591-.18.591-.541a.39.39,0,0,0-.263-.361l.016.016c-.2-.016-.41-.033-.607-.033a.527.527,0,0,0-.525.558c0,.738.066,1.46.066,2.2,0,1.313-.082,2.757-.082,4.069,0,.607.016,1.2.033,1.8.033,1.181.361,2.067,1.838,2.067a15.73,15.73,0,0,0,2.15-.41c.2,0,.246.1.246.213,0,.082-.033.18-.033.263,0,.148.066.263.328.263a.378.378,0,0,0,.328-.18,5.94,5.94,0,0,0,.2-.853,15.669,15.669,0,0,1,.771-2.067A.416.416,0,0,0,63.046,12.034Zm-6.383,2.478c0-.164-.18-.328-.18-.607,0-.066.016-.115.016-.164a15.969,15.969,0,0,0,.115-2.166c0-2-.066-4.2-.246-6.2l-.016-.1V5.143c0-.492-.033-.706-.706-.706-.18,0-.689.033-.689.3,0,.279.476.115.607.722a11.52,11.52,0,0,1,.115,1.3c.1,1.772.181,3.692.181,5.464a7.87,7.87,0,0,1-.115,1.395c-.1.541-1.067.541-1.067,1.034a.394.394,0,0,0,.361.394c.361,0,.673-.3.935-.3.131,0,.23.1.361.1A.353.353,0,0,0,56.663,14.512Zm21.43-2.461a5.868,5.868,0,0,0-.164-1.313A2.865,2.865,0,0,0,75.123,8.31l-.033-.066c.016-.3.837-1.181.837-1.772a3.83,3.83,0,0,0-.8-1.854,1.484,1.484,0,0,0-1.346-.706c-.2,0-2.625.263-2.658.3a.52.52,0,0,0-.131.2c-.049.164-.049,1.477-.049,2.461v1.05c0,2.133.066,3.954.164,6.088a.353.353,0,0,0-.033.18c0,.82,2.494,1.214,3.134,1.214C76.222,15.4,78.093,14.266,78.093,12.051Zm-7.811,2.56a6.3,6.3,0,0,1-.115-1.247c0-2.74-.066-5.513-.148-8.254a.914.914,0,0,0-.985-.919c-.23,0-.591.066-.591.361,0,.328.509.443.738.541l.016.033c.1,2.182.18,4.381.18,6.58V13c0,.361,0,.755-.016,1.116l-.049.066c-.18.115-.541.361-.541.607a.384.384,0,0,0,.427.377A1.345,1.345,0,0,0,70.282,14.61Zm4.841-8.27c0,1.526-1.969,3.167-3.282,3.692-.082-.049-.115-.656-.115-.755l.066-4.25c0-.213.377-.23.673-.23h.443c.591.066,1.017,1.756,1.017,2.281a2.547,2.547,0,0,1-.049.509.108.108,0,0,0,.115.1c.345,0,.558-1.034.558-1.3a4.875,4.875,0,0,0-.443-1.411.169.169,0,0,1,.18-.164C74.664,4.814,75.123,6,75.123,6.34Zm2.3,5.973c-.131,1.575-1.854,2.412-3.265,2.412a3.615,3.615,0,0,1-2.133-.624,4.63,4.63,0,0,1-.213-1.575,8.169,8.169,0,0,1,.2-1.739A15.089,15.089,0,0,0,73.6,9.7a4.811,4.811,0,0,1,.706-.591.6.6,0,0,1,.3-.066l.328.016c.8.033,1.017,2.314,1.017,2.921v.3a1.944,1.944,0,0,1-.033.443c-.016.115-.115.263-.115.361a.134.134,0,0,0,.148.131c.558,0,.591-.919.591-1.313a10.176,10.176,0,0,0-.361-2.642c.837.328,1.263,1.854,1.263,2.806C77.437,12.149,77.42,12.231,77.42,12.313Zm10.731-.279a.553.553,0,0,0-.082-.279c-.164-.066-.181-.2-.361-.2-.41,0-.64,1.214-.985,1.657a3.384,3.384,0,0,1-2.445,1.017c-.345,0-1.067-.082-1.149-.476a18.842,18.842,0,0,1-.115-2.511v-.541c0-1.821.033-3.659.049-5.481.164-.23.591-.18.591-.541a.39.39,0,0,0-.263-.361l.016.016c-.2-.016-.41-.033-.607-.033a.527.527,0,0,0-.525.558c0,.738.066,1.46.066,2.2,0,1.313-.082,2.757-.082,4.069,0,.607.016,1.2.033,1.8.033,1.181.361,2.067,1.838,2.067a15.731,15.731,0,0,0,2.15-.41c.2,0,.246.1.246.213,0,.082-.033.18-.033.263,0,.148.066.263.328.263a.378.378,0,0,0,.328-.18,5.939,5.939,0,0,0,.2-.853,15.671,15.671,0,0,1,.771-2.067A.416.416,0,0,0,88.151,12.034Zm-6.383,2.478c0-.164-.18-.328-.18-.607,0-.066.016-.115.016-.164a15.969,15.969,0,0,0,.115-2.166c0-2-.066-4.2-.246-6.2l-.016-.1V5.143c0-.492-.033-.706-.706-.706-.181,0-.689.033-.689.3,0,.279.476.115.607.722a11.52,11.52,0,0,1,.115,1.3c.1,1.772.18,3.692.18,5.464a7.87,7.87,0,0,1-.115,1.395c-.1.541-1.067.541-1.067,1.034a.394.394,0,0,0,.361.394c.361,0,.673-.3.935-.3.131,0,.23.1.361.1A.353.353,0,0,0,81.768,14.512ZM99.162,9.589c0-2.642-1.493-5.382-4.43-5.382-3.167,0-5.366,3.413-5.366,6.317s2.067,4.693,4.906,4.693C97.488,15.218,99.162,12.559,99.162,9.589Zm-.8.066c0,2.707-1.493,4.791-4.348,4.791a3.732,3.732,0,0,1-3.872-3.708A6.024,6.024,0,0,1,91.45,6.931h.016v.115c0,.016-.246.82-.263.919a9.765,9.765,0,0,0-.23,2.182,3.91,3.91,0,0,0,1.378,3.364l.049.016.082-.066-.016-.1a6.434,6.434,0,0,1-.771-3.052A10.934,10.934,0,0,1,92.664,5.8l.016-.033a3.461,3.461,0,0,1,2.166-.738,3.565,3.565,0,0,1,.82.755A8.277,8.277,0,0,1,96.782,10a8.941,8.941,0,0,1-.2,1.871,3.1,3.1,0,0,0-.082.377.164.164,0,0,0,.181.18h.033c.509-.131.87-2.182.87-2.658a10.378,10.378,0,0,0-.853-3.561,2.979,2.979,0,0,1-.18-.492l.066-.033C97.915,6.406,98.358,8.293,98.358,9.655Zm11.749.41a.256.256,0,0,0-.213-.131.281.281,0,0,0-.279.213,2.123,2.123,0,0,1-1.28.443c-.246,0-.476-.115-.706-.115a.347.347,0,0,0-.328.361c0,.41.952.558,1.263.558.345,0,.591-.115.919-.115a2.039,2.039,0,0,1,.066.541,2.359,2.359,0,0,1-1.411,2,5.394,5.394,0,0,1-2.314.689c-2.33,0-3.774-2.707-3.774-4.775a5.614,5.614,0,0,1,1.231-3.429c.016,0,.049-.033.066-.033a.147.147,0,0,1,.148.148l-.049.1a13.391,13.391,0,0,0-.574,3.413,6.586,6.586,0,0,0,.328,2.182,2.627,2.627,0,0,0,1.3,1.362l.033.016h.016a.306.306,0,0,0,.279-.312c0-.18-.3-.427-.41-.574a4.387,4.387,0,0,1-.82-2.691,8.984,8.984,0,0,1,.935-4.135,2.245,2.245,0,0,1,2.051-.853,2.2,2.2,0,0,1,2.1,1.756,2.324,2.324,0,0,0,.066.328.46.46,0,0,0,.427.3.442.442,0,0,0,.246-.082.316.316,0,0,0,.246-.312,3.636,3.636,0,0,0-.164-.509,2.268,2.268,0,0,1-.049-.574v-.3c0-.3.049-.558.049-.853a.42.42,0,0,0-.427-.41c-.361,0-.361.328-.476.574h-.016a3.824,3.824,0,0,0-2.067-.624,5.1,5.1,0,0,0-5.251,5.3,7.344,7.344,0,0,0,.18,1.985,6.452,6.452,0,0,0,1.362,2.363,4.109,4.109,0,0,0,3.216,1.378,5.451,5.451,0,0,0,2.642-.788,3.3,3.3,0,0,0,1.3-1.346,2.208,2.208,0,0,0,.328-1.362A9.552,9.552,0,0,0,110.106,10.065Z" transform="translate(36.207 72.457)" fill="#fff"/><path d="M5.048,14.183a5.937,5.937,0,0,0,1.539-.327A3.168,3.168,0,0,0,7.99,13a3.49,3.49,0,0,0,.745-.855,4.314,4.314,0,0,0,.54-1.817l.034-.224a3.313,3.313,0,0,0-.475-2,3.992,3.992,0,0,0-.981-1.123,8.834,8.834,0,0,0-1.167-.613,4.2,4.2,0,0,0-1.015-.143,3.305,3.305,0,0,0-1.251.389,5.7,5.7,0,0,0-.745.676A2.324,2.324,0,0,0,3.22,8.553L3.2,8.8a2.182,2.182,0,0,0,.506,1.428,1.224,1.224,0,0,0,.726.389c0,.027.057.04.167.04h.22a.87.87,0,0,0,.525-.286,2.282,2.282,0,0,0,.3-.631,2.149,2.149,0,0,0-.593-.224A1.222,1.222,0,0,1,4.535,8.7L4.52,8.557c0-.815.22-1.32.661-1.508a2.182,2.182,0,0,1,1.03-.264,2.644,2.644,0,0,1,1.064.286,2.341,2.341,0,0,1,.912.671,3.181,3.181,0,0,1,.779,1.41,9,9,0,0,1,.118,1.061,2.442,2.442,0,0,1-.2.918,3.878,3.878,0,0,1-1.642,1.938,2.831,2.831,0,0,1-1.1.51,4.385,4.385,0,0,1-1.083.206,4.112,4.112,0,0,1-3.3-1.714,5.019,5.019,0,0,1-.559-.958A6.331,6.331,0,0,1,.848,9.645a4.835,4.835,0,0,1,.236-1.531,7.44,7.44,0,0,1,.848-1.777,7.813,7.813,0,0,1,.912-1.061,4.413,4.413,0,0,1,2.25-1.083,6.551,6.551,0,0,1,.844-.1,6.289,6.289,0,0,1,1.76.286,15.731,15.731,0,0,1,2.5,1.37q.525.316,2.809,2.041a18.211,18.211,0,0,0,3.265,1.92,6.241,6.241,0,0,0,1.76.367l.779.063a8.937,8.937,0,0,0,1.859-.389,5.317,5.317,0,0,0,1.03-.591,3.72,3.72,0,0,0,.878-.958,6.065,6.065,0,0,0,1.064-2.717,2.543,2.543,0,0,0,.091-.5V4.247a4.029,4.029,0,0,0-.2-1.285,5.139,5.139,0,0,0-.456-1.083A4.758,4.758,0,0,0,22.3.9,3.922,3.922,0,0,0,21.287.206,2.91,2.91,0,0,0,20.374,0h-.236a3.4,3.4,0,0,0-2.285.591c-.148.067-.22.116-.22.143h.015A6.787,6.787,0,0,0,18.5.43a7.354,7.354,0,0,1,.912-.161h.137a2.913,2.913,0,0,1,1.912.488,3.2,3.2,0,0,1,.844.694,4.092,4.092,0,0,1,.677,1.164,3.9,3.9,0,0,1,.338,1.45.689.689,0,0,1,.034.246,6.855,6.855,0,0,1-.2,1.714,8.832,8.832,0,0,1-.711,1.652,5.153,5.153,0,0,1-.829.94,4.822,4.822,0,0,1-.863.573,4.857,4.857,0,0,1-1.456.47l-.373.04h-.456a4.918,4.918,0,0,1-2.6-.756,21.533,21.533,0,0,1-2.874-1.795q-2.064-1.49-3.128-2.1a9.959,9.959,0,0,0-2.265-1.1,6.686,6.686,0,0,0-1.539-.224,10.546,10.546,0,0,0-2.045.264,7.108,7.108,0,0,0-2.015,1A5.3,5.3,0,0,0,.471,7.125,4.4,4.4,0,0,0,.084,8.432,5.492,5.492,0,0,0,0,9.636,4.209,4.209,0,0,0,.186,10.88a3.884,3.884,0,0,0,.642,1.226,4.349,4.349,0,0,0,.931,1.02,4.1,4.1,0,0,0,1.083.653A5.6,5.6,0,0,0,5.048,14.183Z" transform="translate(149.438 73.251)" fill="#fff"/><path d="M19.036,14.183a6.141,6.141,0,0,1-1.568-.327A3.234,3.234,0,0,1,16.039,13a3.513,3.513,0,0,1-.759-.855,4.256,4.256,0,0,1-.55-1.817L14.7,10.1a3.266,3.266,0,0,1,.484-2,4.014,4.014,0,0,1,1-1.123,9.06,9.06,0,0,1,1.189-.613A4.346,4.346,0,0,1,18.4,6.221a3.41,3.41,0,0,1,1.274.389,5.769,5.769,0,0,1,.759.676A2.3,2.3,0,0,1,20.9,8.553l.015.246a2.158,2.158,0,0,1-.515,1.428,1.255,1.255,0,0,1-.739.389c0,.027-.058.04-.17.04h-.225a.892.892,0,0,1-.534-.286,2.263,2.263,0,0,1-.31-.631,2.212,2.212,0,0,1,.6-.224,1.219,1.219,0,0,0,.534-.815l.015-.143c0-.815-.225-1.32-.674-1.508a2.255,2.255,0,0,0-1.049-.264,2.73,2.73,0,0,0-1.084.286,2.379,2.379,0,0,0-.929.671,3.166,3.166,0,0,0-.794,1.41,8.842,8.842,0,0,0-.12,1.061,2.4,2.4,0,0,0,.205.918A3.9,3.9,0,0,0,16.8,13.069a2.91,2.91,0,0,0,1.119.51,4.538,4.538,0,0,0,1.1.206,4.213,4.213,0,0,0,3.36-1.714,5,5,0,0,0,.569-.958,6.237,6.237,0,0,0,.36-1.468,4.755,4.755,0,0,0-.24-1.531,7.382,7.382,0,0,0-.863-1.777,7.851,7.851,0,0,0-.929-1.061,4.533,4.533,0,0,0-2.292-1.083,6.789,6.789,0,0,0-.859-.1,6.514,6.514,0,0,0-1.792.286,16.114,16.114,0,0,0-2.551,1.37q-.534.316-2.861,2.041A18.623,18.623,0,0,1,7.6,9.708a6.459,6.459,0,0,1-1.792.367l-.794.063A9.247,9.247,0,0,1,3.12,9.748a5.445,5.445,0,0,1-1.049-.591A3.744,3.744,0,0,1,1.177,8.2,6,6,0,0,1,.093,5.483,2.5,2.5,0,0,1,0,4.981V4.247A3.964,3.964,0,0,1,.205,2.963,5.088,5.088,0,0,1,.67,1.88,4.771,4.771,0,0,1,1.463.9,4,4,0,0,1,2.5.206,3.008,3.008,0,0,1,3.426,0h.24A3.5,3.5,0,0,1,5.993.591c.151.067.225.116.225.143H6.2a7,7,0,0,1-.863-.3A7.616,7.616,0,0,0,4.41.269H4.27A3.007,3.007,0,0,0,2.323.756a3.247,3.247,0,0,0-.859.694A4.074,4.074,0,0,0,.774,2.614,3.839,3.839,0,0,0,.43,4.064c-.012,0-.023.081-.035.246A6.736,6.736,0,0,0,.6,6.024a8.748,8.748,0,0,0,.724,1.652,5.185,5.185,0,0,0,.844.94,4.917,4.917,0,0,0,.879.573,5.011,5.011,0,0,0,1.483.47l.379.04h.465a5.078,5.078,0,0,0,2.652-.756,22,22,0,0,0,2.927-1.795q2.1-1.49,3.186-2.1a10.219,10.219,0,0,1,2.307-1.1,6.928,6.928,0,0,1,1.568-.224,10.93,10.93,0,0,1,2.083.264,7.3,7.3,0,0,1,2.052,1A5.3,5.3,0,0,1,23.7,7.125a4.34,4.34,0,0,1,.395,1.307,5.4,5.4,0,0,1,.085,1.2,4.139,4.139,0,0,1-.19,1.244,3.862,3.862,0,0,1-.654,1.226,4.377,4.377,0,0,1-.948,1.02,4.192,4.192,0,0,1-1.1.653A5.8,5.8,0,0,1,19.036,14.183Z" transform="translate(9.176 73.251)" fill="#fff"/></g></svg>